<?xml version="1.0" encoding="UTF-8" standalone="no"?>
<!-- Created with Inkscape (http://www.inkscape.org/) -->

<svg
   xmlns:dc="http://purl.org/dc/elements/1.1/"
   xmlns:cc="http://creativecommons.org/ns#"
   xmlns:rdf="http://www.w3.org/1999/02/22-rdf-syntax-ns#"
   xmlns:svg="http://www.w3.org/2000/svg"
   xmlns="http://www.w3.org/2000/svg"
   xmlns:sodipodi="http://sodipodi.sourceforge.net/DTD/sodipodi-0.dtd"
   xmlns:inkscape="http://www.inkscape.org/namespaces/inkscape"
   width="256"
   height="256"
   viewBox="0 0 256 256"
   id="svg6678"
   version="1.1"
   inkscape:version="0.91 r13725"
   sodipodi:docname="logo.svg"
   inkscape:export-filename="/home/brian/dev/ubuntu/indicator-weather/assets/logo.png"
   inkscape:export-xdpi="90"
   inkscape:export-ydpi="90">
  <defs
     id="defs6680" />
  <sodipodi:namedview
     id="base"
     pagecolor="#ffffff"
     bordercolor="#666666"
     borderopacity="1.0"
     inkscape:pageopacity="0.0"
     inkscape:pageshadow="2"
     inkscape:zoom="1.9127791"
     inkscape:cx="108.69191"
     inkscape:cy="92.669212"
     inkscape:document-units="px"
     inkscape:current-layer="layer1"
     showgrid="false"
     units="px"
     inkscape:window-width="1920"
     inkscape:window-height="1009"
     inkscape:window-x="0"
     inkscape:window-y="0"
     inkscape:window-maximized="1" />
  <metadata
     id="metadata6683">
    <rdf:RDF>
      <cc:Work
         rdf:about="">
        <dc:format>image/svg+xml</dc:format>
        <dc:type
           rdf:resource="http://purl.org/dc/dcmitype/StillImage" />
        <dc:title></dc:title>
      </cc:Work>
    </rdf:RDF>
  </metadata>
  <g
     inkscape:label="Layer 1"
     inkscape:groupmode="layer"
     id="layer1"
     transform="translate(0,-796.36216)">
    <rect
       style="fill:#00009e;fill-opacity:1"
       id="rect7241"
       width="256"
       height="256"
       x="0"
       y="796.36218" />
    <path
       inkscape:connector-curvature="0"
       d="m 41.611552,935.22183 q 0,14.03908 9.937958,24.12355 9.937959,10.08445 24.259325,10.74355 1.204599,0 1.204599,-1.18645 l 0,-9.62302 q 0,-1.25224 -1.204599,-1.25224 -9.302198,-0.72512 -15.659813,-7.28329 -6.357614,-6.55817 -6.357614,-15.5221 0,-8.83222 6.056462,-15.39038 6.056468,-6.55817 14.957131,-7.28318 l 3.747649,-0.52736 q 1.405368,0 1.405368,-1.18632 l 0.401534,-3.55921 q 1.137676,-11.40275 9.80411,-19.08142 8.666436,-7.67868 20.444758,-7.67868 11.64448,0 20.31091,7.64577 8.66643,7.64566 9.93797,19.11433 l 0.46845,4.08646 q 0,1.18643 1.33843,1.18643 l 11.44371,0 q 9.70373,0 16.56327,6.65711 6.85953,6.65698 6.85953,16.01644 0,8.96393 -6.35761,15.5221 -6.35762,6.55818 -15.65981,7.28329 -1.40538,0 -1.40538,1.25224 l 0,9.62302 q 0,1.18646 1.40538,1.18646 14.25444,-0.46145 24.12548,-10.61171 9.87103,-10.1504 9.87103,-24.2554 0,-7.11843 -3.34611,-14.56645 8.49912,-9.95264 8.49912,-23.00314 0,-7.51383 -2.97802,-14.33566 -2.97806,-6.82184 -7.99722,-11.76525 -5.01918,-4.94331 -11.94563,-7.84343 -6.92646,-2.90014 -14.48868,-2.90014 -16.52979,0 -27.70582,12.19357 -9.16835,-4.35011 -18.939,-4.35011 -15.191359,0 -26.869294,9.1617 -11.677938,9.16169 -14.95713,23.6622 -11.778322,2.70238 -19.474382,12.16067 -7.696061,9.45828 -7.696061,21.58604 z m 53.537822,79.22557 2.141514,0 37.944932,-55.16794 q 0.40154,-0.46134 0.1673,-0.95567 -0.23423,-0.49433 -0.97037,-0.49433 l -15.59289,0 16.39596,-29.59433 q 0.80307,-1.51593 -1.00384,-1.51593 l -21.01358,0 q -0.87,0 -1.53922,0.98869 l -15.392132,40.20603 q -0.26769,1.45 1.00384,1.45 l 15.459052,0 z m 6.290696,-165.76737 q 0,2.63644 1.73998,4.35025 l 4.68456,4.54778 q 4.48379,3.36156 8.63297,0 1.73998,-1.91134 1.73998,-4.48198 0,-2.43869 -1.73998,-4.15238 l -4.55072,-4.54784 q -2.00766,-1.77965 -4.41686,-1.77965 -2.47612,0 -4.28303,1.77965 -1.8069,1.77955 -1.8069,4.28417 z m 38.14569,31.11024 q 7.29453,-7.18434 17.66748,-7.18434 10.43988,0 17.80133,7.31618 7.36144,7.31618 7.36144,17.73013 0,6.39342 -3.6138,12.72092 -10.43986,-9.88672 -24.69432,-9.88672 l -2.20843,0 q -2.87765,-11.99579 -12.3137,-20.69617 z m 11.57756,-37.17406 q 0,2.63644 1.70652,4.35013 1.70652,1.71369 4.3834,1.71369 2.54304,0 4.21611,-1.68067 1.67306,-1.68079 1.67306,-4.38315 l 0,-14.36868 q 0,-2.50465 -1.67306,-4.15243 -1.67307,-1.64776 -4.21611,-1.64776 -2.54304,0 -4.31649,1.64776 -1.77343,1.64778 -1.77343,4.15243 l 0,14.36868 z m 39.35029,16.28013 q 0,2.43867 1.94075,4.2183 1.94074,1.77959 3.94842,1.77959 1.73998,0 4.41687,-1.77959 l 10.30603,-10.08436 q 1.80689,-1.91146 1.80689,-4.41617 0,-2.57052 -1.77344,-4.2842 -1.77343,-1.7137 -4.31649,-1.7137 -2.34226,0 -4.14918,1.77964 l -10.2391,10.08443 q -1.94075,2.04327 -1.94075,4.41606 z m 5.82225,83.11431 q 0,2.43868 1.73997,4.28433 l 4.61763,4.6137 q 1.74,1.7138 4.14918,1.7138 2.54306,0 4.31649,-1.77972 1.77344,-1.77962 1.77344,-4.41606 0,-2.37278 -1.80689,-4.02066 l -4.41688,-4.6137 q -2.00766,-1.64777 -4.41686,-1.64777 -2.47612,0 -4.21611,1.71369 -1.73997,1.71368 -1.73997,4.15238 z m 10.37294,-44.35841 q 0,2.30696 1.87383,4.02063 1.8069,1.77963 4.28302,1.77963 l 14.58906,0 q 2.54304,0 4.34996,-1.68079 1.80688,-1.68067 1.80688,-4.11947 0,-2.50461 -1.84035,-4.28422 -1.84036,-1.77959 -4.31649,-1.77959 l -14.58906,0 q -2.47612,0 -4.31649,1.77959 -1.84036,1.7796 -1.84036,4.28422 z"
       id="path5144"
       style="fill:#eaeaea;fill-opacity:1" />
    <g
       id="g4614-8-97-9"
       transform="matrix(1,0,0,0.5,44.002262,769.68263)"
       style="display:inline;opacity:0.1;fill:#ffffff">
      <rect
         y="53.35907"
         x="-44.002262"
         height="256"
         width="256"
         id="rect2985-57-34-8"
         style="opacity:1;fill:#ffffff;fill-opacity:1;fill-rule:nonzero;stroke:none" />
    </g>
  </g>
</svg>
